<svg xmlns="http://www.w3.org/2000/svg" viewBox="0 0 1024 1024" width="1024" height="1024">
    <g class="transform-group">
      <g transform="translate(0 28) scale(1 -1) scale(0.03125)">
        <path fill="#737383" d="M 895.672 -63.8157 c -256.123 0 -511.59 0 -767.406 0 c 0 298.455 0 596.685 0 895.611 c 1.92512 0 3.70688 0 5.48864 0 c 188.191 0 376.402 0 564.593 -0.12288 c 2.51904 0 5.7344 -0.98304 7.45472 -2.68288 c 62.2182 -61.9725 124.252 -124.109 186.429 -186.143 c 2.43712 -2.43712 3.52256 -4.8128 3.52256 -8.31488 c -0.08192 -231.096 -0.08192 -462.213 -0.08192 -693.33 C 895.672 -60.2726 895.672 -61.7882 895.672 -63.8157 Z M 191.857 -0.02048 c 2.68288 0 4.66944 0 6.63552 0 c 208.957 0 417.935 0 626.893 0.02048 c 6.41024 0 6.41024 0 6.41024 6.63552 c 0 208.794 -0.02048 417.608 0.06144 626.401 c 0 4.01408 -1.16736 6.8608 -3.9936 9.68704 c -40.3661 40.2022 -80.6502 80.4864 -120.832 120.873 c -2.9696 2.9696 -5.8368 4.21888 -10.0352 4.21888 C 530.924 767.693 364.851 767.713 198.779 767.713 c -6.90176 0 -6.92224 0 -6.92224 -6.67648 c 0 -251.535 0 -503.071 0 -754.586 C 191.857 4.48512 191.857 2.51904 191.857 -0.02048 Z M 256.123 384.123 c 0 21.3811 0 42.2707 0 63.4266 c 149.115 0 298.025 0 447.324 0 c 0 -21.1149 0 -42.1069 0 -63.4266 C 554.312 384.123 405.443 384.123 256.123 384.123 Z M 703.324 319.57 c 0.2048 -1.024 0.47104 -1.82272 0.47104 -2.60096 c 0.04096 -19.1283 0 -38.1952 0.08192 -57.303 c 0 -2.8672 -1.16736 -3.95264 -3.8912 -3.76832 c -1.3312 0.1024 -2.68288 0.02048 -4.01408 0.02048 c -144.241 0 -288.481 0 -432.701 0 c -2.29376 0 -4.58752 0 -7.12704 0 c 0 21.545 0 42.3936 0 63.6314 C 405.217 319.57 554.209 319.57 703.324 319.57 Z M 256.082 159.15 c 0 21.6474 0 11.1411 0 32.3994 c 1.90464 0.1024 3.66592 0.26624 5.4272 0.26624 c 145.469 0.02048 290.898 0 436.347 0.12288 c 4.9152 0 6.20544 -1.35168 6.12352 -6.16448 c -0.28672 -17.2646 -0.28672 -3.2768 0 -20.5414 c 0.08192 -4.8128 -1.31072 -6.18496 -6.18496 -6.18496 c -104.735 0.12288 -209.469 0.1024 -314.184 0.1024 c -40.5504 0 -81.1213 0 -121.651 0 C 260.137 159.15 258.335 159.15 256.082 159.15 Z M 256.205 575.979 c 0 21.4221 0 42.3117 0 63.488 c 85.1558 0 170.045 0 255.283 0 c 0 -21.2378 0 -42.2298 0 -63.488 C 426.291 575.979 341.422 575.979 256.205 575.979 Z" />
      </g>
    </g>
  </svg>